{"title":"The.Final.Girls.2015.WEBRiP.XViD.ReLeNTLesS","uid":12554795,"size":1329633244,"categoryP":"video","categoryS":"movies","magnet":"?xt=urn:btih:be4934b1412e6f2df9d51b56537360cd293cee33&amp;dn=The.Final.Girls.2015.WEBRiP.XViD.ReLeNTLesS&amp;tr=udp%3A%2F%2Ftracker.leechers-paradise.org%3A6969&amp;tr=udp%3A%2F%2Fzer0day.ch%3A1337&amp;tr=udp%3A%2F%2Fopen.demonii.com%3A1337&amp;tr=udp%3A%2F%2Ftracker.coppersurfer.tk%3A6969&amp;tr=udp%3A%2F%2Fexodus.desync.com%3A6969","seeders":0,"leechers":1,"uploader":"TvTeam","files":4,"time":1444613631,"description":"------------------------------------------------------------------------\r\n\r  https://www.torrenting.com\r\n\r\nSign up is OPEN - for time being. Come and have fun.\r\n\r\n------------------------------------------------------------------------P0STER\r\n[img]http://i.imgur.com/cSPTxzZ.png[/img]\r\n\r\niMDB: http://www.imdb.com/title/tt2118624/\r\n\r\nGeneral\r\nComplete name               : The.Final.Girls.2015.WEBRiP.XViD.ReLeNTLesS.avi\r\nFormat                      : AVI\r\nFormat/Info                 : Audio Video Interleave\r\nFile size                   : 1.22 GiB\r\nDuration                    : 1h 31mn\r\nOverall bit rate            : 1 907 Kbps\r\n\r\nVideo\r\nID                          : 0\r\nFormat                      : MPEG-4 Visual\r\nFormat profile              : Advanced   \r\nFormat settings, BVOP       : 1\r\nFormat settings, QPel       : No\r\nFormat settings, GMC        : No warppoints\r\nFormat settings, Matrix     : Default (H.263)\r\nMuxing mode                 : Packed bitstream\r\nCodec ID                    : XVID\r\nCodec ID/Hint               : XviD\r\nDuration                    : 1h 31mn\r\nBit rate                    : 1 708 Kbps\r\nWidth                       : 720 pixels\r\nHeight                      : 304 pixels\r\nDisplay aspect ratio        : 2.35:1\r\nFrame rate                  : 23.976 fps\r\nColor space                 : YUV\r\nChroma subsampling          : 4:2:0\r\nBit depth                   : 8 bits\r\nScan type                   : Progressive\r\nCompression mode            : Lossy\r\nBits/(Pixel*Frame)          : 0.326\r\nStream size                 : 1.09 GiB (90%)\r\nWriting library             : XviD 1.2.1 (UTC 2008-12-04)\r\n\r\nAudio\r\nID                          : 1\r\nFormat                      : AC-3\r\nFormat/Info                 : Audio Coding 3\r\nMode extension              : CM (complete main)\r\nFormat settings, Endianness : Big\r\nCodec ID                    : 2000\r\nDuration                    : 1h 31mn\r\nBit rate mode               : Constant\r\nBit rate                    : 192 Kbps\r\nChannel(s)                  : 2 channels\r\nChannel positions           : Front: L R\r\nSampling rate               : 48.0 KHz\r\nCompression mode            : Lossy\r\nStream size                 : 125 MiB (10%)\r\nAlignment                   : Aligned on interleaves\r\nInterleave, duration        : 64 ms (1.54 video frames)\r\nInterleave, preload duratio : 192 ms\r\nTitle                       : The.Final.Girls.2015.2.0. English\r\nSample Included             : Yes\r\nSource                      : PLAYNOW Thanks\r\n\r\nPL0T\r\nA young woman grieving the loss of her mother, a famous scream queen from the 1980s, finds herself pulled into the world of her mom's most famous movie. Reunited, the women must fight off the film's maniacal killer.\r\n\r\nCAST\r\nDirector: Todd Strauss-Schulson\r\nWriters: M.A. Fortin (screenplay), Joshua John Miller (screenplay)\r\nStars: Taissa Farmiga, Malin Akerman, Adam DeVine \r\n\r\nN0TE\r\nResized, sharpened, degrained and muxed audio.\r\n\r\nSCREENS\r\n[img]http://i.imgur.com/IJd3O65.png[/img]\r\n[img]http://i.imgur.com/kJ1qNQb.png[/img]\r\n[img]http://i.imgur.com/Q2HVw0G.png[/img]\r\n[img]http://i.imgur.com/i5hPnYz.png[/img]\r\n[img]http://i.imgur.com/CRxARzz.png[/img]\r\n[img]http://i.imgur.com/pj75uyp.png[/img]\r\n\r\nTRAiLER\r\n\r\nGREETZ\r\n\r\nHIVE-CM8, Blackjesus, M0RPH, M00SE, MiLLENiUM,\r\n\r\nMANiX, TiTAN, Anonymous, TuX, \r\n\r\nACAB, KingStoner, FooKas, 4PlayHD, \r\n\r\nSoZE, GodFather, Cld.... \r\n\r\nKeep up the good work guyz","torrent":{"xt":"urn:btih:be4934b1412e6f2df9d51b56537360cd293cee33","amp;dn":"The.Final.Girls.2015.WEBRiP.XViD.ReLeNTLesS","amp;tr":["udp%3A%2F%2Ftracker.leechers-paradise.org%3A6969","udp%3A%2F%2Fzer0day.ch%3A1337","udp%3A%2F%2Fopen.demonii.com%3A1337","udp%3A%2F%2Ftracker.coppersurfer.tk%3A6969","udp%3A%2F%2Fexodus.desync.com%3A6969"],"infoHash":"be4934b1412e6f2df9d51b56537360cd293cee33","infoHashBuffer":{"type":"Buffer","data":[190,73,52,177,65,46,111,45,249,213,27,86,83,115,96,205,41,60,238,51]},"announce":[],"urlList":[]}}